# xmcd
#
# Track frame offsets:
#	150
#	17837
#	29545
#	45082
#	59685
#	78017
#	90050
#	106650
#	122705
#	136860
#
# Disc length: 2002 seconds
#
# Revision: 0
# Processed by: cddbd v1.5.2PL0 Copyright (c) Steve Scherf et al.
# Submitted via: audiograbber 1.83.01
#
DISCID=6907d00a
DTITLE=Estela Nuñez - Tesoros De Coleccion 3.1
DYEAR=2006
DGENRE=Ballad
TTITLE0=Una Lagrima (Una Lacrima)
TTITLE1=Gracias Por Volver
TTITLE2=Tan Lejos Tan Lejos
TTITLE3=Nuestro Amor Es Lon Mas Bello Del Mundo
TTITLE4=Uno
TTITLE5=Buenas Noches Cenicienta
TTITLE6=La Paloma
TTITLE7=¿Te Acuerdas?
TTITLE8=Vivir Sin Ti
TTITLE9=Con Las Manos Vacias
EXTD=MS®
EXTT0=MS®
EXTT1=
EXTT2=
EXTT3=
EXTT4=
EXTT5=
EXTT6=
EXTT7=
EXTT8=
EXTT9=
PLAYORDER=
